<svg width="66" height="66" viewBox="0 0 66 66" fill="none" xmlns="http://www.w3.org/2000/svg">
<g filter="url(#filter0_d_688_4688)">
<path d="M0 16C0 8.45753 0 4.68629 2.34315 2.34315C4.68629 0 8.45753 0 16 0H48C55.5425 0 59.3137 0 61.6569 2.34315C64 4.68629 64 8.45753 64 16V48C64 55.5425 64 59.3137 61.6569 61.6569C59.3137 64 55.5425 64 48 64H16C8.45753 64 4.68629 64 2.34315 61.6569C0 59.3137 0 55.5425 0 48V16Z" fill="#FCC636" shape-rendering="crispEdges"/>
<path d="M16.1176 16.6349H20.689V26.7683L24.4223 24.7619C28.4604 25.1175 31.6096 28.5206 31.6096 32.6349C31.6096 36.9016 28.1811 40.5079 24.5493 40.5079C22.8223 40.5079 21.5779 39.6444 20.689 38.4762V38.5016L20.5366 40H16.1176V16.6349ZM23.7366 36.2921C25.5652 36.2921 27.0382 34.6667 27.0382 32.6349C27.0382 30.9587 26.0223 29.5365 24.6255 29.1048L20.7398 31.0857C20.5366 31.5429 20.435 32.1016 20.435 32.6349C20.435 34.6667 21.908 36.2921 23.7366 36.2921ZM33.5238 25.2698H37.9429L38.0952 26.7683L41.8286 24.7619C45.8667 25.1175 49.0159 28.5206 49.0159 32.6349C49.0159 36.9778 45.4349 40.5079 41.9556 40.5079C40.2286 40.5079 38.9841 39.6444 38.0952 38.4762V47.619H33.5238V25.2698ZM41.1429 36.2921C42.9714 36.2921 44.4444 34.6667 44.4444 32.6349C44.4444 30.9587 43.4286 29.5365 42.0317 29.1048L38.146 31.0857C37.9429 31.5429 37.8413 32.0762 37.8413 32.6349C37.8413 34.6667 39.3143 36.2921 41.1429 36.2921Z" fill="#2B2B2B"/>
</g>
<defs>
<filter id="filter0_d_688_4688" x="0" y="0" width="66" height="66" filterUnits="userSpaceOnUse" color-interpolation-filters="sRGB">
<feFlood flood-opacity="0" result="BackgroundImageFix"/>
<feColorMatrix in="SourceAlpha" type="matrix" values="0 0 0 0 0 0 0 0 0 0 0 0 0 0 0 0 0 0 127 0" result="hardAlpha"/>
<feOffset dx="2" dy="2"/>
<feComposite in2="hardAlpha" operator="out"/>
<feColorMatrix type="matrix" values="0 0 0 0 0 0 0 0 0 0 0 0 0 0 0 0 0 0 0.5 0"/>
<feBlend mode="normal" in2="BackgroundImageFix" result="effect1_dropShadow_688_4688"/>
<feBlend mode="normal" in="SourceGraphic" in2="effect1_dropShadow_688_4688" result="shape"/>
</filter>
</defs>
</svg>
