<svg width="34" height="34" viewBox="0 0 34 34" fill="none" xmlns="http://www.w3.org/2000/svg">
<g filter="url(#filter0_d_688_4654)">
<path d="M0 16C0 8.45753 0 4.68629 2.34315 2.34315C4.68629 0 8.45753 0 16 0V0C23.5425 0 27.3137 0 29.6569 2.34315C32 4.68629 32 8.45753 32 16V16C32 23.5425 32 27.3137 29.6569 29.6569C27.3137 32 23.5425 32 16 32V32C8.45753 32 4.68629 32 2.34315 29.6569C0 27.3137 0 23.5425 0 16V16Z" fill="#2B2B2B" shape-rendering="crispEdges"/>
<path d="M16 31.5C12.2146 31.5 9.4259 31.4989 7.28845 31.2116C5.16538 30.9261 3.75989 30.3665 2.6967 29.3033C1.63351 28.2401 1.07387 26.8346 0.788435 24.7116C0.501062 22.5741 0.5 19.7854 0.5 16C0.5 12.2146 0.501062 9.4259 0.788435 7.28845C1.07387 5.16538 1.63351 3.75989 2.6967 2.6967C3.75989 1.63351 5.16538 1.07387 7.28845 0.788435C9.4259 0.501062 12.2146 0.5 16 0.5C19.7854 0.5 22.5741 0.501062 24.7116 0.788435C26.8346 1.07387 28.2401 1.63351 29.3033 2.6967C30.3665 3.75989 30.9261 5.16538 31.2116 7.28845C31.4989 9.4259 31.5 12.2146 31.5 16C31.5 19.7854 31.4989 22.5741 31.2116 24.7116C30.9261 26.8346 30.3665 28.2401 29.3033 29.3033C28.2401 30.3665 26.8346 30.9261 24.7116 31.2116C22.5741 31.4989 19.7854 31.5 16 31.5Z" stroke="black" shape-rendering="crispEdges"/>
<g clip-path="url(#clip0_688_4654)">
<path d="M7.06613 6.85714H9.63756V12.5571L11.7376 11.4286C14.009 11.6286 15.7804 13.5429 15.7804 15.8571C15.7804 18.2571 13.8518 20.2857 11.809 20.2857C10.8376 20.2857 10.1376 19.8 9.63756 19.1429V19.1571L9.55184 20H7.06613V6.85714ZM11.3518 17.9143C12.3804 17.9143 13.209 17 13.209 15.8571C13.209 14.9143 12.6376 14.1143 11.8518 13.8714L9.66613 14.9857C9.55184 15.2429 9.4947 15.5571 9.4947 15.8571C9.4947 17 10.3233 17.9143 11.3518 17.9143ZM16.8571 11.7143H19.3429L19.4286 12.5571L21.5286 11.4286C23.8 11.6286 25.5714 13.5429 25.5714 15.8571C25.5714 18.3 23.5571 20.2857 21.6 20.2857C20.6286 20.2857 19.9286 19.8 19.4286 19.1429V24.2857H16.8571V11.7143ZM21.1429 17.9143C22.1714 17.9143 23 17 23 15.8571C23 14.9143 22.4286 14.1143 21.6429 13.8714L19.4571 14.9857C19.3429 15.2429 19.2857 15.5429 19.2857 15.8571C19.2857 17 20.1143 17.9143 21.1429 17.9143Z" fill="#FCC636"/>
</g>
</g>
<defs>
<filter id="filter0_d_688_4654" x="0" y="0" width="34" height="34" filterUnits="userSpaceOnUse" color-interpolation-filters="sRGB">
<feFlood flood-opacity="0" result="BackgroundImageFix"/>
<feColorMatrix in="SourceAlpha" type="matrix" values="0 0 0 0 0 0 0 0 0 0 0 0 0 0 0 0 0 0 127 0" result="hardAlpha"/>
<feOffset dx="2" dy="2"/>
<feComposite in2="hardAlpha" operator="out"/>
<feColorMatrix type="matrix" values="0 0 0 0 0 0 0 0 0 0 0 0 0 0 0 0 0 0 0.5 0"/>
<feBlend mode="normal" in2="BackgroundImageFix" result="effect1_dropShadow_688_4654"/>
<feBlend mode="normal" in="SourceGraphic" in2="effect1_dropShadow_688_4654" result="shape"/>
</filter>
<clipPath id="clip0_688_4654">
<rect width="24" height="24" fill="white" transform="translate(4 4)"/>
</clipPath>
</defs>
</svg>
