<svg width="66" height="66" viewBox="0 0 66 66" fill="none" xmlns="http://www.w3.org/2000/svg">
<g filter="url(#filter0_d_688_4678)">
<path d="M0 16C0 8.45753 0 4.68629 2.34315 2.34315C4.68629 0 8.45753 0 16 0H48C55.5425 0 59.3137 0 61.6569 2.34315C64 4.68629 64 8.45753 64 16V48C64 55.5425 64 59.3137 61.6569 61.6569C59.3137 64 55.5425 64 48 64H16C8.45753 64 4.68629 64 2.34315 61.6569C0 59.3137 0 55.5425 0 48V16Z" fill="#2B2B2B" shape-rendering="crispEdges"/>
<path d="M16 0.5H48C51.7854 0.5 54.5741 0.501062 56.7116 0.788435C58.8346 1.07387 60.2401 1.63351 61.3033 2.6967C62.3665 3.75989 62.9261 5.16538 63.2116 7.28845C63.4989 9.4259 63.5 12.2146 63.5 16V48C63.5 51.7854 63.4989 54.5741 63.2116 56.7116C62.9261 58.8346 62.3665 60.2401 61.3033 61.3033C60.2401 62.3665 58.8346 62.9261 56.7116 63.2116C54.5741 63.4989 51.7854 63.5 48 63.5H16C12.2146 63.5 9.4259 63.4989 7.28845 63.2116C5.16538 62.9261 3.75989 62.3665 2.6967 61.3033C1.63351 60.2401 1.07387 58.8346 0.788435 56.7116C0.501062 54.5741 0.5 51.7854 0.5 48V16C0.5 12.2146 0.501062 9.4259 0.788435 7.28845C1.07387 5.16538 1.63351 3.75989 2.6967 2.6967C3.75989 1.63351 5.16538 1.07387 7.28845 0.788435C9.4259 0.501062 12.2146 0.5 16 0.5Z" stroke="black" shape-rendering="crispEdges"/>
<path d="M16.1176 16.6349H20.689V26.7683L24.4223 24.7619C28.4604 25.1175 31.6096 28.5206 31.6096 32.6349C31.6096 36.9016 28.1811 40.5079 24.5493 40.5079C22.8223 40.5079 21.5779 39.6444 20.689 38.4762V38.5016L20.5366 40H16.1176V16.6349ZM23.7366 36.2921C25.5652 36.2921 27.0382 34.6667 27.0382 32.6349C27.0382 30.9587 26.0223 29.5365 24.6255 29.1048L20.7398 31.0857C20.5366 31.5429 20.435 32.1016 20.435 32.6349C20.435 34.6667 21.908 36.2921 23.7366 36.2921ZM33.5238 25.2698H37.9429L38.0952 26.7683L41.8286 24.7619C45.8667 25.1175 49.0159 28.5206 49.0159 32.6349C49.0159 36.9778 45.4349 40.5079 41.9556 40.5079C40.2286 40.5079 38.9841 39.6444 38.0952 38.4762V47.619H33.5238V25.2698ZM41.1429 36.2921C42.9714 36.2921 44.4444 34.6667 44.4444 32.6349C44.4444 30.9587 43.4286 29.5365 42.0317 29.1048L38.146 31.0857C37.9429 31.5429 37.8413 32.0762 37.8413 32.6349C37.8413 34.6667 39.3143 36.2921 41.1429 36.2921Z" fill="#FCC636"/>
</g>
<defs>
<filter id="filter0_d_688_4678" x="0" y="0" width="66" height="66" filterUnits="userSpaceOnUse" color-interpolation-filters="sRGB">
<feFlood flood-opacity="0" result="BackgroundImageFix"/>
<feColorMatrix in="SourceAlpha" type="matrix" values="0 0 0 0 0 0 0 0 0 0 0 0 0 0 0 0 0 0 127 0" result="hardAlpha"/>
<feOffset dx="2" dy="2"/>
<feComposite in2="hardAlpha" operator="out"/>
<feColorMatrix type="matrix" values="0 0 0 0 0 0 0 0 0 0 0 0 0 0 0 0 0 0 0.5 0"/>
<feBlend mode="normal" in2="BackgroundImageFix" result="effect1_dropShadow_688_4678"/>
<feBlend mode="normal" in="SourceGraphic" in2="effect1_dropShadow_688_4678" result="shape"/>
</filter>
</defs>
</svg>
